<svg width="500" height="500" viewBox="0 0 500 500" fill="none" xmlns="http://www.w3.org/2000/svg">
<path d="M81.8018 0.00683594C125.923 0.565449 161.517 36.5054 161.517 80.7588V337.766H151.517V80.7588C151.517 41.6801 119.837 10.0002 80.7588 10C41.68 10 10 41.68 10 80.7588V419.241C10 458.32 41.68 490 80.7588 490C119.837 490 151.517 458.32 151.517 419.241V377.659H161.517V419.241C161.517 463.843 125.36 500 80.7588 500L79.7148 499.993C35.5941 499.434 0 463.494 0 419.241V80.7588C0 36.1571 36.1571 0 80.7588 0L81.8018 0.00683594Z" fill="black"/>
<path d="M82.1509 218.089C111.309 218.458 134.832 242.21 134.832 271.456V337.766H124.832V271.456C124.832 247.503 105.414 228.085 81.4614 228.085C57.5084 228.085 38.0904 247.503 38.0903 271.456V421.363C38.0904 445.316 57.5085 464.734 81.4614 464.734C105.414 464.734 124.831 445.316 124.832 421.363V377.659H134.832V421.363L134.828 422.053C134.458 451.211 110.707 474.734 81.4614 474.734L80.771 474.729C51.8427 474.363 28.4606 450.981 28.0942 422.053L28.0903 421.363V271.456C28.0904 241.98 51.9856 218.085 81.4614 218.085L82.1509 218.089Z" fill="black"/>
<rect x="58.3711" y="342.766" width="217.528" height="29.8936" rx="14.9468" stroke="black" stroke-width="10" stroke-linejoin="round"/>
<rect x="49.9438" y="43.5635" width="63.0337" height="138.936" rx="31.5169" stroke="black" stroke-width="10" stroke-linejoin="round"/>
<path d="M198.446 312.615L188.525 273.185V315.908C188.525 318.272 187.99 320.045 186.921 321.227C185.88 322.409 184.486 323 182.741 323C181.053 323 179.674 322.423 178.604 321.269C177.535 320.087 177 318.3 177 315.908V266.937C177 264.235 177.704 262.42 179.111 261.491C180.518 260.534 182.418 260.055 184.81 260.055H188.694C191.03 260.055 192.719 260.266 193.76 260.689C194.829 261.111 195.617 261.871 196.124 262.968C196.631 264.066 197.208 265.853 197.855 268.33L206.847 302.23L215.839 268.33C216.486 265.853 217.063 264.066 217.57 262.968C218.077 261.871 218.85 261.111 219.892 260.689C220.961 260.266 222.664 260.055 225 260.055H228.884C231.276 260.055 233.176 260.534 234.583 261.491C235.99 262.42 236.694 264.235 236.694 266.937V315.908C236.694 318.272 236.159 320.045 235.09 321.227C234.048 322.409 232.641 323 230.868 323C229.208 323 227.843 322.409 226.773 321.227C225.704 320.045 225.169 318.272 225.169 315.908V273.185L215.248 312.615C214.601 315.176 214.066 317.062 213.644 318.272C213.25 319.454 212.504 320.537 211.406 321.522C210.309 322.507 208.789 323 206.847 323C205.383 323 204.145 322.676 203.132 322.029C202.119 321.41 201.331 320.608 200.768 319.623C200.205 318.638 199.755 317.554 199.417 316.372C199.107 315.162 198.784 313.909 198.446 312.615Z" fill="black"/>
<path d="M291.913 299.57C291.913 303.004 291.378 306.17 290.309 309.069C289.239 311.967 287.691 314.458 285.665 316.541C283.639 318.624 281.218 320.228 278.404 321.354C275.589 322.451 272.423 323 268.905 323C265.415 323 262.277 322.437 259.491 321.311C256.704 320.186 254.284 318.581 252.23 316.499C250.203 314.388 248.655 311.911 247.586 309.069C246.544 306.198 246.024 303.032 246.024 299.57C246.024 296.08 246.558 292.886 247.628 289.987C248.697 287.088 250.231 284.611 252.23 282.557C254.228 280.502 256.648 278.926 259.491 277.828C262.333 276.703 265.471 276.14 268.905 276.14C272.395 276.14 275.561 276.703 278.404 277.828C281.246 278.954 283.681 280.558 285.707 282.641C287.734 284.724 289.267 287.201 290.309 290.071C291.378 292.942 291.913 296.108 291.913 299.57ZM280.346 299.57C280.346 294.87 279.304 291.211 277.222 288.594C275.167 285.976 272.395 284.668 268.905 284.668C266.653 284.668 264.669 285.259 262.953 286.441C261.236 287.595 259.913 289.311 258.984 291.591C258.055 293.871 257.591 296.53 257.591 299.57C257.591 302.581 258.041 305.213 258.942 307.464C259.871 309.716 261.179 311.447 262.868 312.657C264.585 313.839 266.597 314.43 268.905 314.43C272.395 314.43 275.167 313.121 277.222 310.504C279.304 307.858 280.346 304.214 280.346 299.57Z" fill="black"/>
<path d="M332.61 316.414V315.274C331.062 317.047 329.528 318.497 328.008 319.623C326.516 320.72 324.884 321.551 323.111 322.113C321.366 322.704 319.452 323 317.369 323C314.611 323 312.05 322.423 309.686 321.269C307.35 320.087 305.324 318.412 303.607 316.245C301.89 314.078 300.581 311.531 299.681 308.604C298.808 305.677 298.372 302.511 298.372 299.106C298.372 291.901 300.131 286.286 303.649 282.261C307.167 278.237 311.797 276.224 317.538 276.224C320.859 276.224 323.66 276.801 325.939 277.955C328.219 279.081 330.442 280.826 332.61 283.19V266.177C332.61 263.813 333.074 262.026 334.003 260.815C334.96 259.605 336.31 259 338.055 259C339.8 259 341.137 259.563 342.066 260.689C343.023 261.786 343.501 263.419 343.501 265.586V316.414C343.501 318.61 342.995 320.256 341.982 321.354C340.968 322.451 339.66 323 338.055 323C336.479 323 335.171 322.437 334.129 321.311C333.116 320.157 332.61 318.525 332.61 316.414ZM309.939 299.485C309.939 302.61 310.418 305.269 311.375 307.464C312.36 309.66 313.697 311.32 315.385 312.446C317.074 313.544 318.917 314.092 320.916 314.092C322.942 314.092 324.785 313.572 326.446 312.53C328.135 311.461 329.471 309.843 330.456 307.675C331.47 305.48 331.976 302.75 331.976 299.485C331.976 296.418 331.47 293.786 330.456 291.591C329.471 289.368 328.12 287.679 326.404 286.525C324.715 285.343 322.858 284.752 320.831 284.752C318.72 284.752 316.835 285.357 315.174 286.567C313.514 287.749 312.219 289.466 311.29 291.718C310.39 293.941 309.939 296.53 309.939 299.485Z" fill="black"/>
<path d="M387.237 302.398H364.694C364.722 305.016 365.243 307.324 366.256 309.322C367.297 311.32 368.662 312.826 370.351 313.839C372.068 314.852 373.953 315.359 376.008 315.359C377.387 315.359 378.639 315.204 379.765 314.894C380.919 314.557 382.031 314.05 383.1 313.375C384.17 312.671 385.155 311.925 386.055 311.137C386.956 310.349 388.124 309.28 389.559 307.929C390.15 307.422 390.995 307.169 392.092 307.169C393.274 307.169 394.231 307.493 394.963 308.14C395.695 308.787 396.061 309.702 396.061 310.884C396.061 311.925 395.653 313.15 394.836 314.557C394.02 315.936 392.782 317.273 391.121 318.567C389.489 319.834 387.42 320.889 384.916 321.734C382.439 322.578 379.582 323 376.346 323C368.944 323 363.188 320.889 359.079 316.668C354.97 312.446 352.916 306.719 352.916 299.485C352.916 296.08 353.422 292.928 354.435 290.029C355.449 287.102 356.926 284.597 358.868 282.515C360.81 280.432 363.202 278.842 366.045 277.744C368.887 276.618 372.04 276.055 375.501 276.055C380.004 276.055 383.86 277.012 387.069 278.926C390.305 280.812 392.726 283.26 394.33 286.272C395.934 289.283 396.736 292.351 396.736 295.475C396.736 298.374 395.906 300.259 394.245 301.132C392.585 301.976 390.249 302.398 387.237 302.398ZM364.694 295.855H385.591C385.31 291.915 384.24 288.974 382.383 287.032C380.553 285.062 378.133 284.077 375.121 284.077C372.251 284.077 369.887 285.076 368.029 287.074C366.2 289.044 365.088 291.971 364.694 295.855Z" fill="black"/>
<path d="M417.929 306.367V315.992C417.929 318.328 417.38 320.087 416.282 321.269C415.185 322.423 413.792 323 412.103 323C410.442 323 409.077 322.409 408.008 321.227C406.938 320.045 406.404 318.3 406.404 315.992V283.908C406.404 278.729 408.275 276.14 412.018 276.14C413.932 276.14 415.311 276.745 416.156 277.955C417 279.165 417.464 280.953 417.549 283.317C418.928 280.953 420.335 279.165 421.77 277.955C423.234 276.745 425.176 276.14 427.596 276.14C430.017 276.14 432.367 276.745 434.646 277.955C436.926 279.165 438.066 280.77 438.066 282.768C438.066 284.175 437.573 285.343 436.588 286.272C435.631 287.172 434.59 287.623 433.464 287.623C433.042 287.623 432.015 287.369 430.383 286.863C428.778 286.328 427.357 286.061 426.119 286.061C424.43 286.061 423.051 286.511 421.982 287.412C420.912 288.284 420.082 289.593 419.491 291.338C418.9 293.083 418.492 295.165 418.267 297.586C418.041 299.978 417.929 302.905 417.929 306.367Z" fill="black"/>
<path d="M454.868 282.515V283.908C456.894 281.234 459.104 279.278 461.496 278.04C463.916 276.773 466.689 276.14 469.813 276.14C472.852 276.14 475.568 276.801 477.96 278.124C480.353 279.447 482.14 281.318 483.322 283.739C484.082 285.146 484.574 286.666 484.799 288.298C485.025 289.931 485.137 292.013 485.137 294.546V315.992C485.137 318.3 484.602 320.045 483.533 321.227C482.492 322.409 481.127 323 479.438 323C477.721 323 476.328 322.395 475.259 321.185C474.189 319.974 473.654 318.244 473.654 315.992V296.784C473.654 292.984 473.12 290.085 472.05 288.087C471.009 286.061 468.912 285.047 465.76 285.047C463.705 285.047 461.834 285.667 460.145 286.905C458.456 288.115 457.218 289.79 456.43 291.929C455.867 293.646 455.586 296.854 455.586 301.554V315.992C455.586 318.328 455.037 320.087 453.939 321.269C452.87 322.423 451.477 323 449.76 323C448.099 323 446.734 322.395 445.665 321.185C444.595 319.974 444.061 318.244 444.061 315.992V282.683C444.061 280.488 444.539 278.856 445.496 277.786C446.453 276.689 447.762 276.14 449.422 276.14C450.435 276.14 451.35 276.379 452.166 276.858C452.982 277.336 453.63 278.054 454.108 279.011C454.615 279.967 454.868 281.135 454.868 282.515Z" fill="black"/>
</svg>
